<svg width="396" height="481" viewBox="0 0 396 481" fill="none" xmlns="http://www.w3.org/2000/svg">
<g id="person">
<path id="left_hand" d="M228.851 226.486C228.865 223.875 228.329 221.29 227.277 218.902C226.225 216.513 224.681 214.374 222.746 212.625C220.811 210.875 218.529 209.555 216.049 208.751C213.569 207.946 210.948 207.676 208.356 207.957C207.536 208.05 206.724 208.2 205.925 208.406L143.307 154.644L147.049 134.442L116.186 124.423L106.88 156.799C105.779 160.684 105.959 164.822 107.391 168.597C108.824 172.373 111.434 175.585 114.834 177.757L191.865 226.557C191.865 227.164 191.897 227.771 191.959 228.375C192.24 230.971 193.066 233.478 194.382 235.732C195.698 237.985 197.475 239.935 199.596 241.454C201.717 242.972 204.134 244.024 206.689 244.541C209.244 245.059 211.88 245.029 214.423 244.455C215.162 244.291 215.89 244.08 216.603 243.825C220.168 242.533 223.253 240.18 225.443 237.08C227.632 233.98 228.822 230.283 228.851 226.486Z" fill="#FDBCB4"/>
<path id="Vector" d="M73.6337 289.008H154.071C154.071 291.383 236.972 293.31 236.972 293.31C238.273 294.316 239.459 295.471 240.507 296.751C243.655 300.609 245.376 305.484 245.366 310.518V313.959C245.364 319.664 243.157 325.134 239.23 329.167C235.303 333.201 229.977 335.467 224.423 335.47H73.6337C68.0808 335.465 62.7567 333.197 58.8302 329.164C54.9036 325.131 52.6956 319.663 52.6908 313.959V310.518C52.6985 304.816 54.9074 299.349 58.8333 295.317C62.7592 291.284 68.0817 289.016 73.6337 289.008Z" fill="#3F3D56"/>
<path id="Vector_2" d="M161.218 334.682H139.198V476.43H161.218V334.682Z" fill="#3F3D56"/>
<path id="Vector_3" d="M222.56 478.801C222.56 481.535 189.639 479.858 149.028 479.858C108.418 479.858 75.4973 481.535 75.4973 478.801C75.4973 476.066 108.418 454.38 149.028 454.38C189.639 454.38 222.56 476.066 222.56 478.801Z" fill="#3F3D56"/>
<path id="Vector_4" d="M203.689 459.105L224.469 459.103L234.356 405.556L203.685 405.558L203.689 459.105Z" fill="#FDBCB4"/>
<path id="Vector_5" d="M198.182 479.58L264.24 479.577V478.71C264.24 475.205 263.575 471.734 262.283 468.495C260.991 465.257 259.097 462.314 256.71 459.836C254.322 457.357 251.488 455.391 248.369 454.05C245.249 452.708 241.906 452.018 238.529 452.018H238.527L198.18 452.019L198.182 479.58Z" fill="#2F2E41"/>
<path id="Vector_6" d="M234.384 426.22L275.514 333.019C278.948 325.164 279.327 316.29 276.577 308.164C273.827 300.039 268.149 293.258 260.674 289.173L171.462 240.832L130.753 237.333L93.2017 233.884L92.931 234.347C92.5846 234.938 84.5108 249.03 89.9684 264.483C94.1082 276.204 104.876 285.359 121.973 291.694C161.88 306.481 207.98 319.118 225.948 323.864C226.742 324.07 227.484 324.442 228.126 324.958C228.767 325.474 229.293 326.121 229.669 326.857C230.046 327.584 230.27 328.383 230.327 329.202C230.384 330.021 230.272 330.843 229.999 331.616L191.789 418.367C191.39 419.467 191.246 420.645 191.369 421.811C191.492 422.976 191.878 424.097 192.497 425.088C193.116 426.078 193.953 426.912 194.941 427.524C195.93 428.137 197.044 428.512 198.199 428.62L226.751 430.721C226.993 430.744 227.234 430.755 227.475 430.755C228.937 430.755 230.368 430.326 231.594 429.521C232.82 428.717 233.789 427.57 234.384 426.22Z" fill="#CBCBCB"/>
<path id="Vector_7" d="M190.319 459.105L210.566 459.103L220.2 405.556L190.316 405.558L190.319 459.105Z" fill="#FDBCB4"/>
<path id="Vector_8" d="M184.812 479.58L250.871 479.577V478.71C250.871 475.205 250.206 471.734 248.914 468.495C247.622 465.257 245.728 462.314 243.341 459.836C240.953 457.357 238.119 455.391 234.999 454.05C231.88 452.708 228.536 452.018 225.16 452.018H225.157L184.811 452.019L184.812 479.58Z" fill="#2F2E41"/>
<path id="Vector_9" d="M218.903 430.953L259.801 337.906C263.216 330.063 263.594 321.204 260.859 313.092C258.124 304.98 252.478 298.21 245.045 294.132L156.335 245.87L115.855 242.377L86.6083 239.803L86.6123 239.396C86.2679 239.986 78.2394 254.055 83.6664 269.482C87.7828 281.184 90.1236 290.324 107.125 296.649C146.807 311.411 192.648 324.027 210.515 328.766C211.304 328.971 212.042 329.343 212.68 329.858C213.318 330.373 213.841 331.019 214.215 331.753C214.59 332.479 214.812 333.276 214.869 334.094C214.925 334.912 214.815 335.733 214.543 336.505L176.547 423.112C176.15 424.211 176.008 425.387 176.13 426.55C176.252 427.714 176.636 428.833 177.251 429.822C177.867 430.811 178.699 431.643 179.682 432.255C180.665 432.866 181.773 433.24 182.922 433.348L211.312 435.446C211.554 435.469 211.793 435.48 212.032 435.48C213.486 435.48 214.909 435.052 216.128 434.248C217.348 433.445 218.312 432.3 218.903 430.953Z" fill="#CBCBCB"/>
<path id="Vector_10" d="M142.18 241.626C144.164 240.221 172.654 255.184 177.733 243.321C154.031 184.002 170.364 158.387 155.846 124.371C153.288 118.504 149.436 113.294 144.578 109.131C139.72 104.969 133.983 101.963 127.798 100.339L90.1296 98.4359L89.9345 98.5303C81.4343 102.698 74.5022 109.497 70.166 117.919C65.8297 126.342 64.3201 135.939 65.8612 145.287C65.9952 182.307 88.1215 210.543 80.3848 237.394C80.0604 238.516 79.9657 239.693 80.1065 240.853C80.2473 242.013 80.6206 243.133 81.204 244.145C81.7698 245.123 82.5296 245.975 83.4368 246.648C84.344 247.321 85.3794 247.801 86.4789 248.058L136.217 241.417C137.379 241.693 138.586 241.719 139.759 241.492C140.931 241.265 142.042 240.79 143.017 240.099L142.18 241.626Z" fill="#2F2E41"/>
<g id="head">
<path id="Vector_11" d="M104.63 96.1043C127.424 96.1043 145.903 77.4674 145.903 54.4776C145.903 31.4879 127.424 12.851 104.63 12.851C81.8349 12.851 63.3562 31.4879 63.3562 54.4776C63.3562 77.4674 81.8349 96.1043 104.63 96.1043Z" fill="#FDBCB4"/>
<path id="Vector_12" d="M91.483 92.6856C93.6759 93.6534 98.1667 76.03 96.1551 72.5052C93.1635 67.2632 93.3403 67.3008 91.3544 63.8328C89.3684 60.3647 88.9241 55.6178 91.4958 52.5663C94.0676 49.5148 100.019 49.9196 101.193 53.7455C100.438 46.4785 107.565 40.6369 114.624 38.9953C121.684 37.3537 129.131 38.3729 136.229 36.912C144.467 35.2167 153.039 28.252 149.752 19.1152C149.188 17.594 148.344 16.1943 147.263 14.9899C143.466 10.6834 138.153 8.84453 132.959 7.06649C122.154 3.36761 111.053 -0.377735 99.6494 0.0306292C80.9124 0.701515 63.2012 13.7648 56.8885 31.57C56.1026 33.7916 55.4938 36.0729 55.0678 38.3923C51.1537 59.6186 63.3754 80.556 83.2256 88.6389L91.483 92.6856Z" fill="#373549"/>
</g>
<path id="Vector_13" d="M305.849 147.925L310.616 176.224C310.669 176.54 310.634 176.864 310.515 177.161L273.117 270.588C272.969 270.958 272.698 271.266 272.35 271.461C272.003 271.656 271.599 271.725 271.206 271.658C270.813 271.591 270.455 271.391 270.191 271.092C269.928 270.793 269.775 270.413 269.758 270.014L268.174 232.47C268.164 232.221 268.207 231.972 268.301 231.741L302.516 147.559C302.659 147.208 302.913 146.913 303.238 146.718C303.564 146.524 303.944 146.442 304.321 146.483C304.698 146.525 305.051 146.688 305.327 146.948C305.602 147.208 305.786 147.551 305.849 147.925Z" fill="#3F3D56"/>
<path id="Vector_14" d="M303.029 149.623L307.494 174.086L274.779 259.871L270.532 232.275L303.029 149.623Z" fill="#6C63FF"/>
<path id="Vector_15" d="M158.885 270.463C159.697 273.709 266.284 277.222 267.39 276.24C268.381 274.982 269.241 273.621 269.954 272.178C271.07 270.135 272.105 268.086 272.105 268.086L270.353 233.563L165.356 222.071C165.356 222.071 160.711 250.881 159.253 264.117C158.923 266.214 158.8 268.34 158.885 270.463Z" fill="#3F3D56"/>
<path id="Vector_16" opacity="0.1" d="M256.367 237.835L256.376 266.958L209.977 263.647L212.03 234.671L256.367 237.835Z" fill="black"/>
<path id="Vector_17" opacity="0.1" d="M196.323 242.873L196.607 242.838L194.39 255.146L168.296 253.317L169.187 240.971L196.323 242.873Z" fill="black"/>
<path id="Vector_18" opacity="0.1" d="M158.885 270.695C159.695 273.814 266.083 277.19 267.186 276.247C268.176 275.038 269.034 273.729 269.745 272.343L159.252 264.596C158.923 266.612 158.8 268.655 158.885 270.695Z" fill="black"/>
<g id="right_hand">
<path id="Vector_19" d="M116.804 219.695L206.595 236.595C206.819 237.162 207.073 237.717 207.354 238.258C208.574 240.573 210.263 242.603 212.312 244.217C214.361 245.83 216.723 246.991 219.246 247.623C221.779 248.266 224.418 248.355 226.988 247.886C229.558 247.416 231.999 246.398 234.147 244.901C238.038 242.206 240.76 238.113 241.755 233.459C242.75 228.805 241.942 223.944 239.497 219.872C237.053 215.8 233.156 212.825 228.606 211.557C224.057 210.29 219.198 210.825 215.028 213.054C214.301 213.447 213.603 213.891 212.937 214.382L134.947 187.512L130.955 167.233L98.6056 169.391L101.958 203.386C102.364 207.353 104.028 211.082 106.703 214.02C109.377 216.958 112.919 218.948 116.804 219.695Z" fill="#FDBCB4"/>
<path id="Vector_20" d="M97.1338 184.554L144.14 168.972L133.175 137.219C131.719 133.002 128.832 129.441 125.024 127.163C121.217 124.886 116.733 124.039 112.367 124.773C107.949 125.516 103.941 127.827 101.065 131.289C98.1894 134.752 96.636 139.137 96.6855 143.653L97.1338 184.554Z" fill="#2F2E41"/>
</g>
</g>
</svg>
